<svg width="620" height="425" viewBox="0 0 620 425" fill="none" xmlns="http://www.w3.org/2000/svg">
<g clip-path="url(#clip0_591_10463)">
<path d="M28.4343 178.56L29.068 177.787L28.3982 177.238L27.7593 177.823L28.4343 178.56ZM35.3838 184.253L34.7502 185.027L35.4609 185.609L36.1011 184.95L35.3838 184.253ZM57.9999 161.985C57.9919 161.433 57.5377 160.992 56.9855 161L47.9864 161.131C47.4342 161.139 46.993 161.593 47.0011 162.145C47.0091 162.697 47.4632 163.139 48.0155 163.131L56.0146 163.014L56.1307 171.014C56.1387 171.566 56.5929 172.007 57.1451 171.999C57.6974 171.991 58.1385 171.537 58.1305 170.985L57.9999 161.985ZM5.67501 200.738L29.1094 179.298L27.7593 177.823L4.32499 199.262L5.67501 200.738ZM27.8007 179.334L34.7502 185.027L36.0175 183.479L29.068 177.787L27.8007 179.334ZM36.1011 184.95L57.7173 162.697L56.2827 161.303L34.6665 183.556L36.1011 184.95Z" fill="url(#paint0_linear_591_10463)"/>
<path d="M152.434 403.56L153.068 402.787L152.398 402.238L151.759 402.823L152.434 403.56ZM159.384 409.253L158.75 410.027L159.461 410.609L160.101 409.95L159.384 409.253ZM182 386.985C181.992 386.433 181.538 385.992 180.985 386L171.986 386.131C171.434 386.139 170.993 386.593 171.001 387.145C171.009 387.697 171.463 388.139 172.015 388.131L180.015 388.014L180.131 396.014C180.139 396.566 180.593 397.007 181.145 396.999C181.697 396.991 182.139 396.537 182.131 395.985L182 386.985ZM129.675 425.738L153.109 404.298L151.759 402.823L128.325 424.262L129.675 425.738ZM151.801 404.334L158.75 410.027L160.018 408.479L153.068 402.787L151.801 404.334ZM160.101 409.95L181.717 387.697L180.283 386.303L158.667 408.556L160.101 409.95Z" fill="url(#paint1_linear_591_10463)"/>
<path d="M331.434 384.56L332.068 383.787L331.398 383.238L330.759 383.823L331.434 384.56ZM338.384 390.253L337.75 391.027L338.461 391.609L339.101 390.95L338.384 390.253ZM361 367.985C360.992 367.433 360.538 366.992 359.985 367L350.986 367.131C350.434 367.139 349.993 367.593 350.001 368.145C350.009 368.697 350.463 369.139 351.015 369.131L359.015 369.014L359.131 377.014C359.139 377.566 359.593 378.007 360.145 377.999C360.697 377.991 361.139 377.537 361.131 376.985L361 367.985ZM308.675 406.738L332.109 385.298L330.759 383.823L307.325 405.262L308.675 406.738ZM330.801 385.334L337.75 391.027L339.018 389.479L332.068 383.787L330.801 385.334ZM339.101 390.95L360.717 368.697L359.283 367.303L337.667 389.556L339.101 390.95Z" fill="url(#paint2_linear_591_10463)"/>
<path d="M397.434 355.56L398.068 354.787L397.398 354.238L396.759 354.823L397.434 355.56ZM404.384 361.253L403.75 362.027L404.461 362.609L405.101 361.95L404.384 361.253ZM427 338.985C426.992 338.433 426.538 337.992 425.985 338L416.986 338.131C416.434 338.139 415.993 338.593 416.001 339.145C416.009 339.697 416.463 340.139 417.015 340.131L425.015 340.014L425.131 348.014C425.139 348.566 425.593 349.007 426.145 348.999C426.697 348.991 427.139 348.537 427.131 347.985L427 338.985ZM374.675 377.738L398.109 356.298L396.759 354.823L373.325 376.262L374.675 377.738ZM396.801 356.334L403.75 362.027L405.018 360.479L398.068 354.787L396.801 356.334ZM405.101 361.95L426.717 339.697L425.283 338.303L403.667 360.556L405.101 361.95Z" fill="url(#paint3_linear_591_10463)"/>
<path d="M568.434 77.5603L569.068 76.7867L568.398 76.238L567.759 76.8225L568.434 77.5603ZM575.384 83.2529L574.75 84.0265L575.461 84.6087L576.101 83.9497L575.384 83.2529ZM598 60.9855C597.992 60.4333 597.538 59.9921 596.985 60.0001L587.986 60.1307C587.434 60.1387 586.993 60.5929 587.001 61.1451C587.009 61.6974 587.463 62.1385 588.015 62.1305L596.015 62.0144L596.131 70.0136C596.139 70.5658 596.593 71.007 597.145 70.9989C597.697 70.9909 598.139 70.5368 598.131 69.9845L598 60.9855ZM545.675 99.7378L569.109 78.2981L567.759 76.8225L544.325 98.2622L545.675 99.7378ZM567.801 78.3339L574.75 84.0265L576.018 82.4793L569.068 76.7867L567.801 78.3339ZM576.101 83.9497L597.717 61.6968L596.283 60.3032L574.667 82.5561L576.101 83.9497Z" fill="url(#paint4_linear_591_10463)"/>
<path d="M28.4343 42.5603L29.068 41.7867L28.3982 41.238L27.7593 41.8225L28.4343 42.5603ZM35.3838 48.2529L34.7502 49.0265L35.4609 49.6087L36.1011 48.9497L35.3838 48.2529ZM57.9999 25.9855C57.9919 25.4333 57.5377 24.9921 56.9855 25.0001L47.9864 25.1307C47.4342 25.1387 46.993 25.5929 47.0011 26.1451C47.0091 26.6974 47.4632 27.1385 48.0155 27.1305L56.0146 27.0144L56.1307 35.0136C56.1387 35.5658 56.5929 36.007 57.1451 35.9989C57.6974 35.9909 58.1385 35.5368 58.1305 34.9845L57.9999 25.9855ZM5.67501 64.7378L29.1094 43.2981L27.7593 41.8225L4.32499 63.2622L5.67501 64.7378ZM27.8007 43.3339L34.7502 49.0265L36.0175 47.4793L29.068 41.7867L27.8007 43.3339ZM36.1011 48.9497L57.7173 26.6968L56.2827 25.3032L34.6665 47.5561L36.1011 48.9497Z" fill="url(#paint5_linear_591_10463)"/>
<path d="M356.434 45.5603L357.068 44.7867L356.398 44.238L355.759 44.8225L356.434 45.5603ZM363.384 51.2529L362.75 52.0265L363.461 52.6087L364.101 51.9497L363.384 51.2529ZM386 28.9855C385.992 28.4333 385.538 27.9921 384.985 28.0001L375.986 28.1307C375.434 28.1387 374.993 28.5929 375.001 29.1451C375.009 29.6974 375.463 30.1385 376.015 30.1305L384.015 30.0144L384.131 38.0136C384.139 38.5658 384.593 39.007 385.145 38.9989C385.697 38.9909 386.139 38.5368 386.131 37.9845L386 28.9855ZM333.675 67.7378L357.109 46.2981L355.759 44.8225L332.325 66.2622L333.675 67.7378ZM355.801 46.3339L362.75 52.0265L364.018 50.4793L357.068 44.7867L355.801 46.3339ZM364.101 51.9497L385.717 29.6968L384.283 28.3032L362.667 50.5561L364.101 51.9497Z" fill="url(#paint6_linear_591_10463)"/>
<path d="M16.4343 371.56L17.068 370.787L16.3982 370.238L15.7593 370.823L16.4343 371.56ZM23.3838 377.253L22.7502 378.027L23.4609 378.609L24.1011 377.95L23.3838 377.253ZM45.9999 354.985C45.9919 354.433 45.5377 353.992 44.9855 354L35.9864 354.131C35.4342 354.139 34.993 354.593 35.0011 355.145C35.0091 355.697 35.4632 356.139 36.0155 356.131L44.0146 356.014L44.1307 364.014C44.1387 364.566 44.5929 365.007 45.1451 364.999C45.6974 364.991 46.1385 364.537 46.1305 363.985L45.9999 354.985ZM-6.32499 393.738L17.1094 372.298L15.7593 370.823L-7.67501 392.262L-6.32499 393.738ZM15.8007 372.334L22.7502 378.027L24.0175 376.479L17.068 370.787L15.8007 372.334ZM24.1011 377.95L45.7173 355.697L44.2827 354.303L22.6665 376.556L24.1011 377.95Z" fill="url(#paint7_linear_591_10463)"/>
<path d="M423.434 407.56L424.068 406.787L423.398 406.238L422.759 406.823L423.434 407.56ZM430.384 413.253L429.75 414.027L430.461 414.609L431.101 413.95L430.384 413.253ZM453 390.985C452.992 390.433 452.538 389.992 451.985 390L442.986 390.131C442.434 390.139 441.993 390.593 442.001 391.145C442.009 391.697 442.463 392.139 443.015 392.131L451.015 392.014L451.131 400.014C451.139 400.566 451.593 401.007 452.145 400.999C452.697 400.991 453.139 400.537 453.131 399.985L453 390.985ZM400.675 429.738L424.109 408.298L422.759 406.823L399.325 428.262L400.675 429.738ZM422.801 408.334L429.75 414.027L431.018 412.479L424.068 406.787L422.801 408.334ZM431.101 413.95L452.717 391.697L451.283 390.303L429.667 412.556L431.101 413.95Z" fill="url(#paint8_linear_591_10463)"/>
<path d="M75.7141 263.942L76.9827 262.395L75.6417 261.295L74.3629 262.467L75.7141 263.942ZM88.6775 274.578L87.4089 276.124L88.8319 277.291L90.1133 275.97L88.6775 274.578ZM131 232.969C130.983 231.865 130.074 230.983 128.969 231L110.971 231.276C109.867 231.293 108.985 232.202 109.002 233.307C109.019 234.411 109.928 235.293 111.033 235.276L127.031 235.03L127.276 251.029C127.293 252.133 128.202 253.015 129.307 252.998C130.411 252.981 131.293 252.072 131.276 250.967L131 232.969ZM33.3512 305.475L77.0653 265.416L74.3629 262.467L30.6488 302.525L33.3512 305.475ZM74.4455 265.488L87.4089 276.124L89.9461 273.032L76.9827 262.395L74.4455 265.488ZM90.1133 275.97L130.436 234.392L127.564 231.608L87.2418 273.185L90.1133 275.97Z" fill="url(#paint9_linear_591_10463)"/>
<path d="M437.829 162.946L438.461 162.17L437.793 161.626L437.156 162.206L437.829 162.946ZM443.709 167.739L443.078 168.514L443.786 169.092L444.425 168.438L443.709 167.739ZM463 148.988C462.993 148.436 462.54 147.993 461.988 148L452.989 148.109C452.436 148.116 451.994 148.569 452.001 149.121C452.007 149.673 452.461 150.116 453.013 150.109L461.012 150.012L461.109 158.011C461.116 158.564 461.569 159.006 462.121 158.999C462.673 158.993 463.116 158.539 463.109 157.987L463 148.988ZM418.673 181.739L438.502 163.685L437.156 162.206L417.327 180.261L418.673 181.739ZM437.197 163.721L443.078 168.514L444.341 166.964L438.461 162.17L437.197 163.721ZM444.425 168.438L462.716 149.698L461.284 148.302L442.994 167.041L444.425 168.438Z" fill="url(#paint10_linear_591_10463)"/>
<path d="M459.829 266.946L460.461 266.17L459.793 265.626L459.156 266.206L459.829 266.946ZM465.709 271.739L465.078 272.514L465.786 273.092L466.425 272.438L465.709 271.739ZM485 252.988C484.993 252.436 484.54 251.993 483.988 252L474.989 252.109C474.436 252.116 473.994 252.569 474.001 253.121C474.007 253.673 474.461 254.116 475.013 254.109L483.012 254.012L483.109 262.011C483.116 262.564 483.569 263.006 484.121 262.999C484.673 262.993 485.116 262.539 485.109 261.987L485 252.988ZM440.673 285.739L460.502 267.685L459.156 266.206L439.327 284.261L440.673 285.739ZM459.197 267.721L465.078 272.514L466.341 270.964L460.461 266.17L459.197 267.721ZM466.425 272.438L484.716 253.698L483.284 252.302L464.994 271.041L466.425 272.438Z" fill="url(#paint11_linear_591_10463)"/>
<path d="M261.829 358.946L262.461 358.17L261.793 357.626L261.156 358.206L261.829 358.946ZM267.709 363.739L267.078 364.514L267.786 365.092L268.425 364.438L267.709 363.739ZM287 344.988C286.993 344.436 286.54 343.993 285.988 344L276.989 344.109C276.436 344.116 275.994 344.569 276.001 345.121C276.007 345.673 276.461 346.116 277.013 346.109L285.012 346.012L285.109 354.011C285.116 354.564 285.569 355.006 286.121 354.999C286.673 354.993 287.116 354.539 287.109 353.987L287 344.988ZM242.673 377.739L262.502 359.685L261.156 358.206L241.327 376.261L242.673 377.739ZM261.197 359.721L267.078 364.514L268.341 362.964L262.461 358.17L261.197 359.721ZM268.425 364.438L286.716 345.698L285.284 344.302L266.994 363.041L268.425 364.438Z" fill="url(#paint12_linear_591_10463)"/>
<path d="M578.829 250.946L579.461 250.17L578.793 249.626L578.156 250.206L578.829 250.946ZM584.709 255.739L584.078 256.514L584.786 257.092L585.425 256.438L584.709 255.739ZM604 236.988C603.993 236.436 603.54 235.993 602.988 236L593.989 236.109C593.436 236.116 592.994 236.569 593.001 237.121C593.007 237.673 593.461 238.116 594.013 238.109L602.012 238.012L602.109 246.011C602.116 246.564 602.569 247.006 603.121 246.999C603.673 246.993 604.116 246.539 604.109 245.987L604 236.988ZM559.673 269.739L579.502 251.685L578.156 250.206L558.327 268.261L559.673 269.739ZM578.197 251.721L584.078 256.514L585.341 254.964L579.461 250.17L578.197 251.721ZM585.425 256.438L603.716 237.698L602.284 236.302L583.994 255.041L585.425 256.438Z" fill="url(#paint13_linear_591_10463)"/>
<path d="M151.714 66.9416L152.983 65.3955L151.642 64.2952L150.363 65.4671L151.714 66.9416ZM164.678 77.5778L163.409 79.124L164.832 80.2915L166.113 78.9702L164.678 77.5778ZM207 35.9693C206.983 34.8649 206.074 33.9833 204.969 34.0002L186.971 34.2761C185.867 34.293 184.985 35.2021 185.002 36.3065C185.019 37.411 185.928 38.2926 187.033 38.2756L203.031 38.0304L203.276 54.0285C203.293 55.133 204.202 56.0146 205.307 55.9977C206.411 55.9807 207.293 55.0717 207.276 53.9672L207 35.9693ZM109.351 108.475L153.065 68.4162L150.363 65.4671L106.649 105.525L109.351 108.475ZM150.445 68.4878L163.409 79.124L165.946 76.0316L152.983 65.3955L150.445 68.4878ZM166.113 78.9702L206.436 37.3924L203.564 34.6076L163.242 76.1854L166.113 78.9702Z" fill="url(#paint14_linear_591_10463)"/>
<path d="M527.714 369.942L528.983 368.395L527.642 367.295L526.363 368.467L527.714 369.942ZM540.678 380.578L539.409 382.124L540.832 383.291L542.113 381.97L540.678 380.578ZM583 338.969C582.983 337.865 582.074 336.983 580.969 337L562.971 337.276C561.867 337.293 560.985 338.202 561.002 339.307C561.019 340.411 561.928 341.293 563.033 341.276L579.031 341.03L579.276 357.029C579.293 358.133 580.202 359.015 581.307 358.998C582.411 358.981 583.293 358.072 583.276 356.967L583 338.969ZM485.351 411.475L529.065 371.416L526.363 368.467L482.649 408.525L485.351 411.475ZM526.445 371.488L539.409 382.124L541.946 379.032L528.983 368.395L526.445 371.488ZM542.113 381.97L582.436 340.392L579.564 337.608L539.242 379.185L542.113 381.97Z" fill="url(#paint15_linear_591_10463)"/>
<path d="M487.714 42.9416L488.983 41.3955L487.642 40.2952L486.363 41.4671L487.714 42.9416ZM500.678 53.5778L499.409 55.124L500.832 56.2915L502.113 54.9702L500.678 53.5778ZM543 11.9693C542.983 10.8649 542.074 9.98331 540.969 10.0002L522.971 10.2761C521.867 10.293 520.985 11.2021 521.002 12.3065C521.019 13.411 521.928 14.2926 523.033 14.2756L539.031 14.0304L539.276 30.0285C539.293 31.133 540.202 32.0146 541.307 31.9977C542.411 31.9807 543.293 31.0717 543.276 29.9672L543 11.9693ZM445.351 84.4745L489.065 44.4162L486.363 41.4671L442.649 81.5255L445.351 84.4745ZM486.445 44.4878L499.409 55.124L501.946 52.0316L488.983 41.3955L486.445 44.4878ZM502.113 54.9702L542.436 13.3924L539.564 10.6076L499.242 52.1854L502.113 54.9702Z" fill="url(#paint16_linear_591_10463)"/>
<path d="M541.997 183.661L543.266 182.116L541.924 181.014L540.645 182.187L541.997 183.661ZM551.486 191.451L550.217 192.997L551.64 194.166L552.922 192.843L551.486 191.451ZM583 160.969C582.982 159.864 582.073 158.983 580.969 159L562.971 159.281C561.867 159.299 560.985 160.208 561.002 161.312C561.02 162.417 561.929 163.298 563.033 163.281L579.031 163.031L579.281 179.029C579.299 180.133 580.208 181.015 581.312 180.998C582.417 180.98 583.298 180.071 583.281 178.967L583 160.969ZM511.352 214.474L543.349 185.136L540.645 182.187L508.648 211.526L511.352 214.474ZM540.728 185.207L550.217 192.997L552.755 189.906L543.266 182.116L540.728 185.207ZM552.922 192.843L582.436 162.392L579.564 159.608L550.049 190.059L552.922 192.843Z" fill="url(#paint17_linear_591_10463)"/>
<g filter="url(#filter0_dd_591_10463)">
<g clip-path="url(#clip1_591_10463)">
<rect x="60" y="53" width="500" height="320" rx="12" fill="url(#paint18_linear_591_10463)"/>
<path d="M76.5014 290.237L49 264.175V401H568V159L539.701 161.5H519.41L490.043 175.5L471.355 197L461.21 210.5L429.788 230.784H402.992L372.67 241.371L331.77 278.835L316.962 264.175L283.114 278.835H271.832L256.318 296.753L235.868 290.237L221.765 278.835L211.893 290.237L196.379 296.753L184.391 278.835H174.519L164.647 290.237L149.133 296.753L136.44 290.237L127.978 278.835L107.529 290.237L93.4253 296.753L87.784 290.237H76.5014Z" fill="url(#paint19_linear_591_10463)" stroke="white" stroke-width="2"/>
<g filter="url(#filter1_dd_591_10463)">
<circle cx="520" cy="161" r="8" fill="white"/>
<circle cx="520" cy="161" r="6" fill="#EF4444"/>
</g>
<path d="M94.07 113V92H100.82L104.9 110.57H105.41L109.52 92H116.24V113H112.76V94.61H112.25L108.17 113H102.17L98.09 94.61H97.58V113H94.07ZM127.548 113.42C126.068 113.42 124.738 113.12 123.558 112.52C122.398 111.9 121.478 111.03 120.798 109.91C120.138 108.77 119.808 107.41 119.808 105.83V105.35C119.808 103.77 120.138 102.41 120.798 101.27C121.478 100.13 122.398 99.26 123.558 98.66C124.738 98.06 126.068 97.76 127.548 97.76C129.028 97.76 130.348 98.06 131.508 98.66C132.668 99.26 133.578 100.13 134.238 101.27C134.918 102.41 135.258 103.77 135.258 105.35V105.83C135.258 107.41 134.918 108.77 134.238 109.91C133.578 111.03 132.668 111.9 131.508 112.52C130.348 113.12 129.028 113.42 127.548 113.42ZM127.548 110.36C128.808 110.36 129.838 109.96 130.638 109.16C131.438 108.34 131.838 107.2 131.838 105.74V105.44C131.838 103.98 131.438 102.85 130.638 102.05C129.838 101.23 128.808 100.82 127.548 100.82C126.288 100.82 125.258 101.23 124.458 102.05C123.658 102.85 123.258 103.98 123.258 105.44V105.74C123.258 107.2 123.658 108.34 124.458 109.16C125.258 109.96 126.288 110.36 127.548 110.36ZM138.926 113V98.18H142.316V100.25H142.826C143.086 99.69 143.556 99.16 144.236 98.66C144.916 98.16 145.946 97.91 147.326 97.91C148.466 97.91 149.476 98.17 150.356 98.69C151.236 99.21 151.916 99.93 152.396 100.85C152.896 101.77 153.146 102.86 153.146 104.12V113H149.696V104.39C149.696 103.19 149.396 102.3 148.796 101.72C148.216 101.12 147.386 100.82 146.306 100.82C145.086 100.82 144.126 101.23 143.426 102.05C142.726 102.85 142.376 104 142.376 105.5V113H138.926ZM162.613 113C161.653 113 160.883 112.72 160.303 112.16C159.743 111.58 159.463 110.8 159.463 109.82V101.03H155.593V98.18H159.463V93.41H162.913V98.18H167.173V101.03H162.913V109.25C162.913 109.85 163.193 110.15 163.753 110.15H166.723V113H162.613ZM170.684 113V92H174.134V100.13H174.644C174.804 99.79 175.064 99.45 175.424 99.11C175.784 98.77 176.254 98.49 176.834 98.27C177.434 98.05 178.184 97.94 179.084 97.94C180.224 97.94 181.234 98.2 182.114 98.72C182.994 99.22 183.674 99.93 184.154 100.85C184.654 101.77 184.904 102.86 184.904 104.12V113H181.454V104.39C181.454 103.19 181.154 102.3 180.554 101.72C179.974 101.12 179.144 100.82 178.064 100.82C176.844 100.82 175.884 101.23 175.184 102.05C174.484 102.85 174.134 104 174.134 105.5V113H170.684ZM189.141 113V92H192.591V113H189.141ZM198.613 119V116H206.803C207.363 116 207.643 115.7 207.643 115.1V110.96H207.133C206.973 111.32 206.713 111.68 206.353 112.04C205.993 112.38 205.513 112.67 204.913 112.91C204.313 113.13 203.553 113.24 202.633 113.24C201.493 113.24 200.483 112.99 199.603 112.49C198.723 111.97 198.043 111.25 197.563 110.33C197.083 109.39 196.843 108.3 196.843 107.06V98.18H200.263V106.79C200.263 107.99 200.553 108.88 201.133 109.46C201.733 110.04 202.573 110.33 203.653 110.33C204.873 110.33 205.833 109.93 206.533 109.13C207.253 108.33 207.613 107.18 207.613 105.68V98.18H211.033V115.82C211.033 116.8 210.753 117.57 210.193 118.13C209.633 118.71 208.873 119 207.913 119H198.613ZM223.067 113V98.18H226.517V113H223.067ZM224.777 96.29C224.157 96.29 223.617 96.09 223.157 95.69C222.717 95.27 222.497 94.72 222.497 94.04C222.497 93.36 222.717 92.82 223.157 92.42C223.617 92 224.157 91.79 224.777 91.79C225.437 91.79 225.977 92 226.397 92.42C226.837 92.82 227.057 93.36 227.057 94.04C227.057 94.72 226.837 95.27 226.397 95.69C225.977 96.09 225.437 96.29 224.777 96.29ZM230.889 113V98.18H234.279V99.83H234.789C235.049 99.33 235.479 98.89 236.079 98.51C236.699 98.11 237.519 97.91 238.539 97.91C239.619 97.91 240.489 98.13 241.149 98.57C241.809 99.01 242.309 99.57 242.649 100.25H243.129C243.469 99.57 243.959 99.01 244.599 98.57C245.239 98.13 246.149 97.91 247.329 97.91C248.249 97.91 249.079 98.11 249.819 98.51C250.579 98.91 251.179 99.5 251.619 100.28C252.079 101.06 252.309 102.03 252.309 103.19V113H248.859V103.43C248.859 102.57 248.629 101.92 248.169 101.48C247.709 101.02 247.069 100.79 246.249 100.79C245.349 100.79 244.629 101.09 244.089 101.69C243.569 102.27 243.309 103.11 243.309 104.21V113H239.889V103.43C239.889 102.57 239.659 101.92 239.199 101.48C238.739 101.02 238.099 100.79 237.279 100.79C236.359 100.79 235.639 101.09 235.119 101.69C234.599 102.27 234.339 103.11 234.339 104.21V113H230.889ZM256.553 119V98.18H259.943V100.13H260.453C260.793 99.51 261.333 98.96 262.073 98.48C262.833 98 263.913 97.76 265.313 97.76C266.513 97.76 267.623 98.06 268.643 98.66C269.683 99.24 270.513 100.1 271.133 101.24C271.753 102.38 272.063 103.75 272.063 105.35V105.83C272.063 107.43 271.753 108.8 271.133 109.94C270.513 111.08 269.693 111.95 268.673 112.55C267.653 113.13 266.533 113.42 265.313 113.42C264.373 113.42 263.583 113.31 262.943 113.09C262.323 112.87 261.813 112.58 261.413 112.22C261.033 111.86 260.733 111.5 260.513 111.14H260.003V119H256.553ZM264.293 110.42C265.553 110.42 266.583 110.02 267.383 109.22C268.203 108.4 268.613 107.24 268.613 105.74V105.44C268.613 103.92 268.203 102.76 267.383 101.96C266.563 101.16 265.533 100.76 264.293 100.76C263.053 100.76 262.013 101.16 261.173 101.96C260.353 102.76 259.943 103.92 259.943 105.44V105.74C259.943 107.24 260.353 108.4 261.173 109.22C262.013 110.02 263.053 110.42 264.293 110.42ZM275.713 113V98.18H279.103V99.89H279.613C279.833 99.27 280.203 98.82 280.723 98.54C281.243 98.26 281.863 98.12 282.583 98.12H284.383V101.18H282.523C281.523 101.18 280.713 101.45 280.093 101.99C279.473 102.51 279.163 103.32 279.163 104.42V113H275.713ZM293.685 113.42C292.205 113.42 290.895 113.11 289.755 112.49C288.635 111.85 287.755 110.96 287.115 109.82C286.495 108.66 286.185 107.31 286.185 105.77V105.41C286.185 103.85 286.495 102.5 287.115 101.36C287.735 100.22 288.605 99.34 289.725 98.72C290.845 98.08 292.135 97.76 293.595 97.76C295.035 97.76 296.295 98.08 297.375 98.72C298.455 99.34 299.295 100.22 299.895 101.36C300.495 102.5 300.795 103.83 300.795 105.35V106.58H289.665C289.705 107.74 290.115 108.67 290.895 109.37C291.675 110.07 292.635 110.42 293.775 110.42C294.895 110.42 295.725 110.18 296.265 109.7C296.805 109.2 297.215 108.64 297.495 108.02L300.345 109.49C300.065 110.03 299.655 110.61 299.115 111.23C298.595 111.83 297.895 112.35 297.015 112.79C296.135 113.21 295.025 113.42 293.685 113.42ZM289.695 103.97H297.285C297.205 102.99 296.825 102.21 296.145 101.63C295.485 101.05 294.625 100.76 293.565 100.76C292.465 100.76 291.585 101.05 290.925 101.63C290.265 102.21 289.855 102.99 289.695 103.97ZM310.456 113.42C308.536 113.42 306.956 113 305.716 112.16C304.476 111.32 303.726 110.09 303.466 108.47L306.646 107.66C306.786 108.42 307.036 109.02 307.396 109.46C307.756 109.9 308.196 110.21 308.716 110.39C309.256 110.57 309.836 110.66 310.456 110.66C311.396 110.66 312.096 110.49 312.556 110.15C313.036 109.81 313.276 109.38 313.276 108.86C313.276 108.32 313.046 107.92 312.586 107.66C312.146 107.4 311.466 107.18 310.546 107L309.616 106.85C308.596 106.65 307.666 106.38 306.826 106.04C305.986 105.68 305.306 105.2 304.786 104.6C304.286 103.98 304.036 103.2 304.036 102.26C304.036 100.82 304.566 99.71 305.626 98.93C306.706 98.15 308.116 97.76 309.856 97.76C311.516 97.76 312.886 98.13 313.966 98.87C315.046 99.61 315.746 100.6 316.066 101.84L312.886 102.8C312.726 101.96 312.376 101.37 311.836 101.03C311.296 100.67 310.636 100.49 309.856 100.49C309.056 100.49 308.436 100.63 307.996 100.91C307.576 101.19 307.366 101.59 307.366 102.11C307.366 102.63 307.586 103.02 308.026 103.28C308.466 103.54 309.056 103.73 309.796 103.85L310.726 104.03C311.826 104.23 312.816 104.49 313.696 104.81C314.596 105.13 315.306 105.59 315.826 106.19C316.346 106.79 316.606 107.6 316.606 108.62C316.606 110.16 316.046 111.35 314.926 112.19C313.826 113.01 312.336 113.42 310.456 113.42ZM326.218 113.42C324.298 113.42 322.718 113 321.478 112.16C320.238 111.32 319.488 110.09 319.228 108.47L322.408 107.66C322.548 108.42 322.798 109.02 323.158 109.46C323.518 109.9 323.958 110.21 324.478 110.39C325.018 110.57 325.598 110.66 326.218 110.66C327.158 110.66 327.858 110.49 328.318 110.15C328.798 109.81 329.038 109.38 329.038 108.86C329.038 108.32 328.808 107.92 328.348 107.66C327.908 107.4 327.228 107.18 326.308 107L325.378 106.85C324.358 106.65 323.428 106.38 322.588 106.04C321.748 105.68 321.068 105.2 320.548 104.6C320.048 103.98 319.798 103.2 319.798 102.26C319.798 100.82 320.328 99.71 321.388 98.93C322.468 98.15 323.878 97.76 325.618 97.76C327.278 97.76 328.648 98.13 329.728 98.87C330.808 99.61 331.508 100.6 331.828 101.84L328.648 102.8C328.488 101.96 328.138 101.37 327.598 101.03C327.058 100.67 326.398 100.49 325.618 100.49C324.818 100.49 324.198 100.63 323.758 100.91C323.338 101.19 323.128 101.59 323.128 102.11C323.128 102.63 323.348 103.02 323.788 103.28C324.228 103.54 324.818 103.73 325.558 103.85L326.488 104.03C327.588 104.23 328.578 104.49 329.458 104.81C330.358 105.13 331.068 105.59 331.588 106.19C332.108 106.79 332.368 107.6 332.368 108.62C332.368 110.16 331.808 111.35 330.688 112.19C329.588 113.01 328.098 113.42 326.218 113.42ZM335.86 113V98.18H339.31V113H335.86ZM337.57 96.29C336.95 96.29 336.41 96.09 335.95 95.69C335.51 95.27 335.29 94.72 335.29 94.04C335.29 93.36 335.51 92.82 335.95 92.42C336.41 92 336.95 91.79 337.57 91.79C338.23 91.79 338.77 92 339.19 92.42C339.63 92.82 339.85 93.36 339.85 94.04C339.85 94.72 339.63 95.27 339.19 95.69C338.77 96.09 338.23 96.29 337.57 96.29ZM350.702 113.42C349.222 113.42 347.892 113.12 346.712 112.52C345.552 111.9 344.632 111.03 343.952 109.91C343.292 108.77 342.962 107.41 342.962 105.83V105.35C342.962 103.77 343.292 102.41 343.952 101.27C344.632 100.13 345.552 99.26 346.712 98.66C347.892 98.06 349.222 97.76 350.702 97.76C352.182 97.76 353.502 98.06 354.662 98.66C355.822 99.26 356.732 100.13 357.392 101.27C358.072 102.41 358.412 103.77 358.412 105.35V105.83C358.412 107.41 358.072 108.77 357.392 109.91C356.732 111.03 355.822 111.9 354.662 112.52C353.502 113.12 352.182 113.42 350.702 113.42ZM350.702 110.36C351.962 110.36 352.992 109.96 353.792 109.16C354.592 108.34 354.992 107.2 354.992 105.74V105.44C354.992 103.98 354.592 102.85 353.792 102.05C352.992 101.23 351.962 100.82 350.702 100.82C349.442 100.82 348.412 101.23 347.612 102.05C346.812 102.85 346.412 103.98 346.412 105.44V105.74C346.412 107.2 346.812 108.34 347.612 109.16C348.412 109.96 349.442 110.36 350.702 110.36ZM362.081 113V98.18H365.471V100.25H365.981C366.241 99.69 366.711 99.16 367.391 98.66C368.071 98.16 369.101 97.91 370.481 97.91C371.621 97.91 372.631 98.17 373.511 98.69C374.391 99.21 375.071 99.93 375.551 100.85C376.051 101.77 376.301 102.86 376.301 104.12V113H372.851V104.39C372.851 103.19 372.551 102.3 371.951 101.72C371.371 101.12 370.541 100.82 369.461 100.82C368.241 100.82 367.281 101.23 366.581 102.05C365.881 102.85 365.531 104 365.531 105.5V113H362.081ZM386.658 113.42C384.738 113.42 383.158 113 381.918 112.16C380.678 111.32 379.928 110.09 379.668 108.47L382.848 107.66C382.988 108.42 383.238 109.02 383.598 109.46C383.958 109.9 384.398 110.21 384.918 110.39C385.458 110.57 386.038 110.66 386.658 110.66C387.598 110.66 388.298 110.49 388.758 110.15C389.238 109.81 389.478 109.38 389.478 108.86C389.478 108.32 389.248 107.92 388.788 107.66C388.348 107.4 387.668 107.18 386.748 107L385.818 106.85C384.798 106.65 383.868 106.38 383.028 106.04C382.188 105.68 381.508 105.2 380.988 104.6C380.488 103.98 380.238 103.2 380.238 102.26C380.238 100.82 380.768 99.71 381.828 98.93C382.908 98.15 384.318 97.76 386.058 97.76C387.718 97.76 389.088 98.13 390.168 98.87C391.248 99.61 391.948 100.6 392.268 101.84L389.088 102.8C388.928 101.96 388.578 101.37 388.038 101.03C387.498 100.67 386.838 100.49 386.058 100.49C385.258 100.49 384.638 100.63 384.198 100.91C383.778 101.19 383.568 101.59 383.568 102.11C383.568 102.63 383.788 103.02 384.228 103.28C384.668 103.54 385.258 103.73 385.998 103.85L386.928 104.03C388.028 104.23 389.018 104.49 389.898 104.81C390.798 105.13 391.508 105.59 392.028 106.19C392.548 106.79 392.808 107.6 392.808 108.62C392.808 110.16 392.248 111.35 391.128 112.19C390.028 113.01 388.538 113.42 386.658 113.42Z" fill="white"/>
<path d="M93.35 173V170.57C93.35 169.09 93.59 167.88 94.07 166.94C94.57 165.98 95.28 165.2 96.2 164.6C97.12 163.98 98.24 163.47 99.56 163.07L101.48 162.47C102.26 162.21 102.92 161.9 103.46 161.54C104 161.18 104.42 160.74 104.72 160.22C105.02 159.68 105.17 159.05 105.17 158.33V158.21C105.17 157.13 104.8 156.28 104.06 155.66C103.32 155.02 102.33 154.7 101.09 154.7C99.85 154.7 98.84 155.04 98.06 155.72C97.28 156.38 96.89 157.36 96.89 158.66V159.17H93.41V158.72C93.41 157.2 93.75 155.91 94.43 154.85C95.11 153.79 96.03 152.98 97.19 152.42C98.35 151.86 99.65 151.58 101.09 151.58C102.53 151.58 103.82 151.86 104.96 152.42C106.12 152.96 107.02 153.72 107.66 154.7C108.32 155.68 108.65 156.83 108.65 158.15V158.45C108.65 159.79 108.38 160.92 107.84 161.84C107.3 162.76 106.55 163.52 105.59 164.12C104.65 164.7 103.58 165.18 102.38 165.56L100.52 166.13C99.62 166.41 98.9 166.71 98.36 167.03C97.84 167.35 97.47 167.72 97.25 168.14C97.03 168.54 96.92 169.05 96.92 169.67V169.88H108.47V173H93.35ZM112.211 177.26V175.34H113.321C114.181 175.34 114.611 174.91 114.611 174.05V173.09H114.131C113.391 173.09 112.771 172.87 112.271 172.43C111.771 171.97 111.521 171.39 111.521 170.69C111.521 169.95 111.771 169.35 112.271 168.89C112.771 168.41 113.391 168.17 114.131 168.17C114.891 168.17 115.511 168.41 115.991 168.89C116.471 169.37 116.711 170 116.711 170.78V174.08C116.711 176.2 115.661 177.26 113.561 177.26H112.211ZM127.338 173.42C125.778 173.42 124.428 173.16 123.288 172.64C122.168 172.1 121.298 171.35 120.678 170.39C120.058 169.41 119.748 168.26 119.748 166.94H123.288C123.288 167.86 123.608 168.65 124.248 169.31C124.908 169.97 125.938 170.3 127.338 170.3C128.758 170.3 129.848 169.93 130.608 169.19C131.388 168.43 131.778 167.39 131.778 166.07V163.73H131.268C130.908 164.19 130.368 164.62 129.648 165.02C128.928 165.4 127.868 165.59 126.468 165.59C125.248 165.59 124.118 165.33 123.078 164.81C122.038 164.29 121.198 163.53 120.558 162.53C119.938 161.53 119.628 160.33 119.628 158.93V158.57C119.628 157.15 119.958 155.92 120.618 154.88C121.278 153.84 122.198 153.03 123.378 152.45C124.558 151.87 125.928 151.58 127.488 151.58C129.048 151.58 130.408 151.88 131.568 152.48C132.748 153.06 133.658 153.88 134.298 154.94C134.938 156 135.258 157.23 135.258 158.63V165.86C135.258 167.52 134.918 168.91 134.238 170.03C133.578 171.15 132.648 172 131.448 172.58C130.268 173.14 128.898 173.42 127.338 173.42ZM127.428 162.8C128.328 162.8 129.098 162.64 129.738 162.32C130.378 161.98 130.878 161.52 131.238 160.94C131.598 160.34 131.778 159.64 131.778 158.84V158.6C131.778 157.4 131.388 156.45 130.608 155.75C129.828 155.05 128.768 154.7 127.428 154.7C126.108 154.7 125.058 155.05 124.278 155.75C123.498 156.45 123.108 157.4 123.108 158.6V158.84C123.108 159.64 123.288 160.34 123.648 160.94C124.008 161.52 124.508 161.98 125.148 162.32C125.808 162.64 126.568 162.8 127.428 162.8ZM140.348 173V172.22C140.348 171.46 140.408 170.82 140.528 170.3C140.648 169.76 140.908 169.14 141.308 168.44L148.568 155.57V155.12H137.108V152H152.198V156.14L144.518 169.85C144.258 170.31 144.078 170.72 143.978 171.08C143.898 171.42 143.858 171.85 143.858 172.37V173H140.348ZM162.753 173V168.74H152.253V164.69L159.903 152H166.233V165.62H169.743V168.74H166.233V173H162.753ZM155.613 165.62H162.753V154.22H162.243L155.613 165.17V165.62Z" fill="white"/>
<path d="M94.538 209.234L93.386 208.298L103.232 196.166L104.384 197.102L94.538 209.234ZM102.332 209.198C101.444 209.198 100.742 208.952 100.226 208.46C99.71 207.956 99.452 207.278 99.452 206.426V206.318C99.452 205.454 99.71 204.776 100.226 204.284C100.742 203.78 101.444 203.528 102.332 203.528C103.208 203.528 103.91 203.78 104.438 204.284C104.966 204.776 105.23 205.454 105.23 206.318V206.426C105.23 207.278 104.966 207.956 104.438 208.46C103.922 208.952 103.22 209.198 102.332 209.198ZM102.332 207.938C102.764 207.938 103.1 207.806 103.34 207.542C103.592 207.278 103.718 206.93 103.718 206.498V206.246C103.718 205.802 103.592 205.448 103.34 205.184C103.1 204.92 102.764 204.788 102.332 204.788C101.912 204.788 101.576 204.92 101.324 205.184C101.084 205.448 100.964 205.802 100.964 206.246V206.498C100.964 206.93 101.084 207.278 101.324 207.542C101.576 207.806 101.912 207.938 102.332 207.938ZM95.438 201.872C94.55 201.872 93.842 201.626 93.314 201.134C92.798 200.63 92.54 199.952 92.54 199.1V198.974C92.54 198.11 92.798 197.432 93.314 196.94C93.842 196.448 94.55 196.202 95.438 196.202C96.314 196.202 97.01 196.448 97.526 196.94C98.054 197.432 98.318 198.11 98.318 198.974V199.1C98.318 199.952 98.06 200.63 97.544 201.134C97.028 201.626 96.326 201.872 95.438 201.872ZM95.438 200.612C95.858 200.612 96.188 200.48 96.428 200.216C96.68 199.94 96.806 199.586 96.806 199.154V198.902C96.806 198.47 96.68 198.122 96.428 197.858C96.188 197.594 95.858 197.462 95.438 197.462C95.006 197.462 94.664 197.594 94.412 197.858C94.172 198.122 94.052 198.47 94.052 198.902V199.154C94.052 199.586 94.172 199.94 94.412 200.216C94.664 200.48 95.006 200.612 95.438 200.612ZM111.216 209V207.578C111.216 206.702 111.366 205.982 111.666 205.418C111.966 204.854 112.392 204.398 112.944 204.05C113.508 203.69 114.186 203.39 114.978 203.15L116.076 202.808C116.568 202.652 116.988 202.46 117.336 202.232C117.696 202.004 117.972 201.722 118.164 201.386C118.356 201.038 118.452 200.636 118.452 200.18V200.108C118.452 199.4 118.212 198.848 117.732 198.452C117.252 198.044 116.622 197.84 115.842 197.84C115.038 197.84 114.384 198.056 113.88 198.488C113.388 198.92 113.142 199.556 113.142 200.396V200.684H111.27V200.414C111.27 199.502 111.468 198.734 111.864 198.11C112.26 197.474 112.806 196.988 113.502 196.652C114.198 196.316 114.978 196.148 115.842 196.148C116.706 196.148 117.474 196.31 118.146 196.634C118.83 196.958 119.364 197.414 119.748 198.002C120.144 198.59 120.342 199.28 120.342 200.072V200.234C120.342 201.05 120.18 201.728 119.856 202.268C119.532 202.808 119.082 203.252 118.506 203.6C117.942 203.948 117.288 204.242 116.544 204.482L115.482 204.806C114.918 204.974 114.462 205.16 114.114 205.364C113.778 205.556 113.526 205.79 113.358 206.066C113.202 206.342 113.124 206.696 113.124 207.128V207.308H120.234V209H111.216ZM127.599 209V206.426H121.227V204.23L126.051 196.4H129.489V204.752H131.613V206.426H129.489V209H127.599ZM123.063 204.752H127.599V197.588H127.311L123.063 204.5V204.752Z" fill="white"/>
<path d="M163 196.5L153.5 206L148.5 201L141 208.5" stroke="#22C55E" stroke-width="2" stroke-linecap="round" stroke-linejoin="round"/>
<path d="M157 196.5H163V202.5" stroke="#22C55E" stroke-width="2" stroke-linecap="round" stroke-linejoin="round"/>
</g>
</g>
</g>
<defs>
<filter id="filter0_dd_591_10463" x="40" y="53" width="540" height="360" filterUnits="userSpaceOnUse" color-interpolation-filters="sRGB">
<feFlood flood-opacity="0" result="BackgroundImageFix"/>
<feColorMatrix in="SourceAlpha" type="matrix" values="0 0 0 0 0 0 0 0 0 0 0 0 0 0 0 0 0 0 127 0" result="hardAlpha"/>
<feMorphology radius="5" operator="erode" in="SourceAlpha" result="effect1_dropShadow_591_10463"/>
<feOffset dy="10"/>
<feGaussianBlur stdDeviation="5"/>
<feColorMatrix type="matrix" values="0 0 0 0 0 0 0 0 0 0 0 0 0 0 0 0 0 0 0.04 0"/>
<feBlend mode="normal" in2="BackgroundImageFix" result="effect1_dropShadow_591_10463"/>
<feColorMatrix in="SourceAlpha" type="matrix" values="0 0 0 0 0 0 0 0 0 0 0 0 0 0 0 0 0 0 127 0" result="hardAlpha"/>
<feMorphology radius="5" operator="erode" in="SourceAlpha" result="effect2_dropShadow_591_10463"/>
<feOffset dy="20"/>
<feGaussianBlur stdDeviation="12.5"/>
<feColorMatrix type="matrix" values="0 0 0 0 0 0 0 0 0 0 0 0 0 0 0 0 0 0 0.1 0"/>
<feBlend mode="normal" in2="effect1_dropShadow_591_10463" result="effect2_dropShadow_591_10463"/>
<feBlend mode="normal" in="SourceGraphic" in2="effect2_dropShadow_591_10463" result="shape"/>
</filter>
<filter id="filter1_dd_591_10463" x="500" y="151" width="40" height="40" filterUnits="userSpaceOnUse" color-interpolation-filters="sRGB">
<feFlood flood-opacity="0" result="BackgroundImageFix"/>
<feColorMatrix in="SourceAlpha" type="matrix" values="0 0 0 0 0 0 0 0 0 0 0 0 0 0 0 0 0 0 127 0" result="hardAlpha"/>
<feMorphology radius="2" operator="erode" in="SourceAlpha" result="effect1_dropShadow_591_10463"/>
<feOffset dy="4"/>
<feGaussianBlur stdDeviation="3"/>
<feColorMatrix type="matrix" values="0 0 0 0 0 0 0 0 0 0 0 0 0 0 0 0 0 0 0.05 0"/>
<feBlend mode="normal" in2="BackgroundImageFix" result="effect1_dropShadow_591_10463"/>
<feColorMatrix in="SourceAlpha" type="matrix" values="0 0 0 0 0 0 0 0 0 0 0 0 0 0 0 0 0 0 127 0" result="hardAlpha"/>
<feMorphology radius="3" operator="erode" in="SourceAlpha" result="effect2_dropShadow_591_10463"/>
<feOffset dy="10"/>
<feGaussianBlur stdDeviation="7.5"/>
<feColorMatrix type="matrix" values="0 0 0 0 0 0 0 0 0 0 0 0 0 0 0 0 0 0 0.1 0"/>
<feBlend mode="normal" in2="effect1_dropShadow_591_10463" result="effect2_dropShadow_591_10463"/>
<feBlend mode="normal" in="SourceGraphic" in2="effect2_dropShadow_591_10463" result="shape"/>
</filter>
<linearGradient id="paint0_linear_591_10463" x1="58.6786" y1="160.922" x2="7.18672" y2="194.091" gradientUnits="userSpaceOnUse">
<stop stop-color="#F1F5F9"/>
<stop offset="1" stop-color="#F1F5F9" stop-opacity="0"/>
</linearGradient>
<linearGradient id="paint1_linear_591_10463" x1="182.679" y1="385.922" x2="131.187" y2="419.091" gradientUnits="userSpaceOnUse">
<stop stop-color="#F1F5F9"/>
<stop offset="1" stop-color="#F1F5F9" stop-opacity="0"/>
</linearGradient>
<linearGradient id="paint2_linear_591_10463" x1="361.679" y1="366.922" x2="310.187" y2="400.091" gradientUnits="userSpaceOnUse">
<stop stop-color="#F1F5F9"/>
<stop offset="1" stop-color="#F1F5F9" stop-opacity="0"/>
</linearGradient>
<linearGradient id="paint3_linear_591_10463" x1="427.679" y1="337.922" x2="376.187" y2="371.091" gradientUnits="userSpaceOnUse">
<stop stop-color="#F1F5F9"/>
<stop offset="1" stop-color="#F1F5F9" stop-opacity="0"/>
</linearGradient>
<linearGradient id="paint4_linear_591_10463" x1="598.679" y1="59.9217" x2="547.187" y2="93.0911" gradientUnits="userSpaceOnUse">
<stop stop-color="#F1F5F9"/>
<stop offset="1" stop-color="#F1F5F9" stop-opacity="0"/>
</linearGradient>
<linearGradient id="paint5_linear_591_10463" x1="58.6786" y1="24.9217" x2="7.18672" y2="58.0911" gradientUnits="userSpaceOnUse">
<stop stop-color="#F1F5F9"/>
<stop offset="1" stop-color="#F1F5F9" stop-opacity="0"/>
</linearGradient>
<linearGradient id="paint6_linear_591_10463" x1="386.679" y1="27.9217" x2="335.187" y2="61.0911" gradientUnits="userSpaceOnUse">
<stop stop-color="#F1F5F9"/>
<stop offset="1" stop-color="#F1F5F9" stop-opacity="0"/>
</linearGradient>
<linearGradient id="paint7_linear_591_10463" x1="46.6786" y1="353.922" x2="-4.81328" y2="387.091" gradientUnits="userSpaceOnUse">
<stop stop-color="#F1F5F9"/>
<stop offset="1" stop-color="#F1F5F9" stop-opacity="0"/>
</linearGradient>
<linearGradient id="paint8_linear_591_10463" x1="453.679" y1="389.922" x2="402.187" y2="423.091" gradientUnits="userSpaceOnUse">
<stop stop-color="#F1F5F9"/>
<stop offset="1" stop-color="#F1F5F9" stop-opacity="0"/>
</linearGradient>
<linearGradient id="paint9_linear_591_10463" x1="132.131" y1="230.985" x2="35.9875" y2="292.817" gradientUnits="userSpaceOnUse">
<stop stop-color="#C0FBFF"/>
<stop offset="1" stop-color="#F9FFFF" stop-opacity="0"/>
</linearGradient>
<linearGradient id="paint10_linear_591_10463" x1="463.42" y1="148.092" x2="419.973" y2="176.214" gradientUnits="userSpaceOnUse">
<stop stop-color="#C0FBFF"/>
<stop offset="1" stop-color="#F9FFFF" stop-opacity="0"/>
</linearGradient>
<linearGradient id="paint11_linear_591_10463" x1="485.42" y1="252.092" x2="441.973" y2="280.214" gradientUnits="userSpaceOnUse">
<stop stop-color="#C0FBFF"/>
<stop offset="1" stop-color="#F9FFFF" stop-opacity="0"/>
</linearGradient>
<linearGradient id="paint12_linear_591_10463" x1="287.42" y1="344.092" x2="243.973" y2="372.214" gradientUnits="userSpaceOnUse">
<stop stop-color="#C0FBFF"/>
<stop offset="1" stop-color="#F9FFFF" stop-opacity="0"/>
</linearGradient>
<linearGradient id="paint13_linear_591_10463" x1="604.42" y1="236.092" x2="560.973" y2="264.214" gradientUnits="userSpaceOnUse">
<stop stop-color="#C0FBFF"/>
<stop offset="1" stop-color="#F9FFFF" stop-opacity="0"/>
</linearGradient>
<linearGradient id="paint14_linear_591_10463" x1="208.131" y1="33.9853" x2="111.988" y2="95.8173" gradientUnits="userSpaceOnUse">
<stop stop-color="#C0FBFF"/>
<stop offset="0.760417" stop-color="#E2FDFF" stop-opacity="0.53"/>
<stop offset="1" stop-color="#F9FFFF" stop-opacity="0"/>
</linearGradient>
<linearGradient id="paint15_linear_591_10463" x1="584.131" y1="336.985" x2="487.988" y2="398.817" gradientUnits="userSpaceOnUse">
<stop stop-color="#C0FBFF"/>
<stop offset="0.760417" stop-color="#E2FDFF" stop-opacity="0.53"/>
<stop offset="1" stop-color="#F9FFFF" stop-opacity="0"/>
</linearGradient>
<linearGradient id="paint16_linear_591_10463" x1="544.131" y1="9.98532" x2="447.988" y2="71.8173" gradientUnits="userSpaceOnUse">
<stop stop-color="#C0FBFF"/>
<stop offset="0.760417" stop-color="#E2FDFF" stop-opacity="0.53"/>
<stop offset="1" stop-color="#F9FFFF" stop-opacity="0"/>
</linearGradient>
<linearGradient id="paint17_linear_591_10463" x1="583.292" y1="159.524" x2="512.894" y2="204.772" gradientUnits="userSpaceOnUse">
<stop stop-color="#EFF5FB" stop-opacity="0.92"/>
<stop offset="1" stop-color="#F1F5F9" stop-opacity="0"/>
</linearGradient>
<linearGradient id="paint18_linear_591_10463" x1="566.445" y1="373" x2="241.554" y2="-116.524" gradientUnits="userSpaceOnUse">
<stop offset="0.489583" stop-color="#061618"/>
<stop offset="0.967248" stop-color="#1C6B71"/>
</linearGradient>
<linearGradient id="paint19_linear_591_10463" x1="308.5" y1="164" x2="308.5" y2="401" gradientUnits="userSpaceOnUse">
<stop stop-color="#33C0CB"/>
<stop offset="1" stop-color="#33C0CB" stop-opacity="0.29"/>
</linearGradient>
<clipPath id="clip0_591_10463">
<rect width="620" height="425" fill="white"/>
</clipPath>
<clipPath id="clip1_591_10463">
<rect x="60" y="53" width="500" height="320" rx="12" fill="white"/>
</clipPath>
</defs>
</svg>
