<svg width="155" height="36" viewBox="0 0 155 36" fill="none" xmlns="http://www.w3.org/2000/svg">
<mask id="mask0_1207_5719" style="mask-type:luminance" maskUnits="userSpaceOnUse" x="0" y="0" width="57" height="36">
<path d="M57 0H0V36H57V0Z" fill="white"/>
</mask>
<g mask="url(#mask0_1207_5719)">
<path d="M25.3514 16.2144L16.1101 35.593L15.9589 35.9122H15.9528C15.9468 35.9249 15.9401 35.9309 15.9401 35.9436V35.9497C15.9401 35.9557 15.9401 35.9557 15.934 35.9624C15.9279 35.969 15.9213 35.9811 15.9213 35.9871V35.9938L15.9152 35.9998L15.1927 35.4993C15.1892 35.4959 15.1847 35.4938 15.1799 35.4932C15.1768 35.4897 15.1725 35.4874 15.1678 35.4866V35.4806L8.54992 30.9079L1.81485 26.2531C1.17697 25.8113 0.673712 25.2029 0.360323 24.4949C0.0469309 23.7869 -0.0644687 23.0066 0.0383514 22.2397C0.141171 21.4728 0.454238 20.7489 0.943175 20.1475C1.43212 19.5461 2.07801 19.0906 2.80997 18.8308L16.3359 14.0393C16.7326 13.8961 17.1433 13.7948 17.5612 13.737V13.731C17.58 13.7243 17.5861 13.7243 17.5988 13.731C17.6089 13.7272 17.6196 13.7249 17.6304 13.7243C18.9479 13.5352 20.2921 13.7459 21.4876 14.3289L24.5786 15.8366L24.7042 15.897L25.2385 16.1533L25.3514 16.2144Z" fill="url(#paint0_linear_1207_5719)"/>
<g style="mix-blend-mode:multiply" opacity="0.15">
<path d="M25.3513 16.2144L16.11 35.593L15.9588 35.9122H15.9527C15.9467 35.9249 15.94 35.9309 15.94 35.9436V35.9497C15.94 35.9557 15.94 35.9557 15.9339 35.9624C15.9278 35.969 15.9212 35.9811 15.9212 35.9872V35.9938L15.9151 35.9998L15.1926 35.4993C15.1892 35.4959 15.1846 35.4937 15.1798 35.4933C15.1767 35.4897 15.1724 35.4873 15.1677 35.4866V35.4806L8.5498 30.9079L8.85763 30.619L24.576 15.8378L24.7017 15.8982L25.236 16.1545L25.3513 16.2144Z" fill="black"/>
</g>
<g style="mix-blend-mode:multiply" opacity="0.3">
<path d="M25.3514 16.2144L15.9613 35.9122C15.9669 35.9129 15.972 35.9158 15.9757 35.9202C15.9793 35.9246 15.981 35.9302 15.9807 35.9358C15.9802 35.9415 15.9777 35.9468 15.9736 35.9507C15.9694 35.9546 15.964 35.9567 15.9583 35.9567C15.9525 35.9567 15.9471 35.9546 15.9429 35.9507C15.9388 35.9468 15.9362 35.9415 15.9359 35.9358C15.9354 35.9302 15.9372 35.9246 15.9408 35.9202C15.9444 35.9158 15.9496 35.9129 15.9552 35.9122C16.056 35.6559 16.3802 34.8615 16.8848 33.6543C17.5259 32.1714 18.399 30.0386 19.5113 27.5051C20.6236 24.9715 21.9235 22.0251 23.3557 18.8791C23.802 17.9119 24.2482 16.9084 24.7066 15.9012L25.3514 16.2144Z" fill="black"/>
</g>
<path d="M56.2106 20.0302C56.2048 20.0376 56.2004 20.046 56.1979 20.055C56.1898 20.073 56.1794 20.0899 56.1669 20.1052C56.1165 20.2115 56.0601 20.3179 56.003 20.4177L50.2042 30.4764C49.2347 32.1547 47.8381 33.549 46.155 34.5186C44.4719 35.4882 42.5618 35.9989 40.6173 35.9993H15.915L15.9211 35.9932V35.9872C15.9211 35.9812 15.9278 35.9745 15.9338 35.9624C15.9399 35.9503 15.9399 35.9558 15.9399 35.9497C15.9414 35.9365 15.9457 35.9237 15.9527 35.9122H15.9587L30.1131 5.79305C30.8032 4.32607 31.8391 3.04685 33.1327 2.06431C34.4262 1.08178 35.939 0.425036 37.5424 0.149994C39.1457 -0.125049 40.792 -0.0102409 42.3412 0.484643C43.8904 0.979527 45.2965 1.83982 46.4399 2.9923L50.7682 7.35876C50.7848 7.37763 50.8038 7.39425 50.8247 7.40834C50.8264 7.40834 50.8281 7.40906 50.8294 7.41027C50.8306 7.41154 50.8313 7.41323 50.8313 7.41499L50.8374 7.42103L54.833 11.4496C55.9335 12.5577 56.658 13.9809 56.905 15.5197C57.1521 17.0585 56.9093 18.6357 56.2106 20.0302Z" fill="url(#paint1_linear_1207_5719)"/>
<g style="mix-blend-mode:multiply" opacity="0.3">
<path d="M56.1977 20.0549C56.137 20.1801 56.072 20.2967 56.0028 20.4176L50.204 30.4763C49.2345 32.1547 47.8379 33.5489 46.1549 34.5186C44.4717 35.4882 42.5617 35.9989 40.6172 35.9992H23.4598C23.4598 35.9992 24.101 35.943 25.2206 35.8783C26.3401 35.8137 27.9278 35.7097 29.844 35.6408C31.7601 35.5598 33.9968 35.4908 36.3908 35.4467C37.5845 35.428 38.8194 35.3971 40.0786 35.3905C41.2882 35.43 42.4961 35.2695 43.6529 34.9153C45.9356 34.2274 47.9226 32.8011 49.2993 30.862C49.4687 30.6305 49.6132 30.3929 49.7638 30.1547C49.915 29.9045 50.0674 29.6542 50.2161 29.4105C50.5197 28.9227 50.8129 28.4469 51.1019 27.9778C51.6678 27.0462 52.2203 26.1703 52.7358 25.3633C53.7473 23.7431 54.6392 22.4235 55.2421 21.4852C55.5456 21.0161 55.8012 20.6595 55.9646 20.4092C56.0848 20.2212 56.1667 20.1051 56.1977 20.0549Z" fill="black"/>
</g>
<g style="mix-blend-mode:screen" opacity="0.4">
<path d="M15.9528 35.9122H15.9588C15.9644 35.913 15.9695 35.9159 15.9731 35.9203C15.9767 35.9247 15.9784 35.9302 15.9781 35.9359C15.9777 35.9416 15.9752 35.9469 15.971 35.9507C15.9669 35.9546 15.9615 35.9568 15.9558 35.9568C15.9501 35.9568 15.9447 35.9546 15.9405 35.9507C15.9364 35.9469 15.9338 35.9416 15.9334 35.9359C15.933 35.9302 15.9349 35.9247 15.9384 35.9203C15.942 35.9159 15.9471 35.913 15.9528 35.9122Z" fill="white"/>
</g>
<g style="mix-blend-mode:screen" opacity="0.4">
<path d="M50.7702 7.35689C50.5631 7.17553 49.9281 6.60002 48.967 5.7053C48.3768 5.15458 47.6604 4.48537 46.8377 3.71581C46.6361 3.52841 46.4127 3.30957 46.2093 3.13426C45.977 2.94686 45.7382 2.75301 45.4929 2.55271C45.2497 2.35663 44.9937 2.1769 44.7267 2.01468C44.4598 1.82641 44.1751 1.66444 43.8767 1.53107C42.5984 0.880053 41.1905 0.521118 39.7554 0.480401C38.1663 0.443841 36.5915 0.786914 35.1629 1.48089C33.6491 2.22113 32.3578 3.34513 31.4186 4.73988C30.9481 5.48472 30.5363 6.26487 30.1874 7.07336C29.8036 7.90519 29.4145 8.74366 29.0247 9.57549C28.2354 11.2391 27.4418 12.9034 26.669 14.5423C25.8961 16.1811 25.1043 17.7885 24.3509 19.3464C22.8427 22.4549 21.4105 25.3451 20.1616 27.8097C18.9236 30.2804 17.8435 32.3201 17.1082 33.7589C16.5011 34.9159 16.0907 35.6728 15.9583 35.9104L30.1127 5.79114C30.8029 4.32418 31.839 3.04502 33.1326 2.0626C34.4263 1.08017 35.9393 0.423566 37.5427 0.1487C39.1461 -0.126168 40.7924 -0.0111576 42.3416 0.483935C43.8907 0.979026 45.2968 1.83954 46.44 2.9922L50.7702 7.35689Z" fill="white"/>
</g>
<g style="mix-blend-mode:screen" opacity="0.2">
<path d="M54.1127 18.5787L54.0186 18.6724L53.8862 19.0478C53.867 19.0934 53.8441 19.1373 53.8176 19.179L48.0249 29.2317C47.3798 30.3466 46.4882 31.3006 45.4178 32.0215L35.1522 3.69111C36.3858 2.90987 37.8187 2.4974 39.2807 2.50261C40.2819 2.50319 41.2731 2.70204 42.1964 3.0876C43.1197 3.47315 43.9567 4.03772 44.6588 4.74842L48.3224 8.4451V8.48258L48.9817 9.11431C49.0194 9.14574 49.0637 9.19592 49.1201 9.24609L53.0465 13.2051C53.7338 13.8981 54.2013 14.7769 54.3908 15.7323C54.5804 16.6878 54.4837 17.6776 54.1127 18.5787Z" fill="white"/>
</g>
<g style="mix-blend-mode:multiply" opacity="0.3">
<path d="M15.1679 35.4865V35.4805C15.174 35.4805 15.174 35.4865 15.18 35.4932C15.1769 35.4896 15.1726 35.4872 15.1679 35.4865Z" fill="black"/>
</g>
<g style="mix-blend-mode:multiply" opacity="0.3">
<path d="M16.3358 14.0375C16.7325 13.8943 17.1432 13.793 17.5611 13.7352C17.4919 13.754 17.3602 13.7854 17.178 13.8356C16.7628 13.961 16.357 14.1155 15.9637 14.298C14.9146 14.7212 13.4379 15.368 11.6414 16.0808C9.84486 16.7935 7.74177 17.6217 5.48013 18.468C4.91427 18.6808 4.34293 18.8912 3.75885 19.1125C3.47592 19.2249 3.15535 19.3313 2.89793 19.4437L2.52696 19.6064L2.1815 19.8252C1.51112 20.3065 1.02028 20.9958 0.786089 21.7849C0.551903 22.5741 0.58763 23.4183 0.887664 24.185C0.996732 24.434 1.13144 24.6711 1.28961 24.8923C1.35685 25.0033 1.43851 25.1049 1.53246 25.1946C1.61431 25.3 1.70711 25.3964 1.80932 25.4823L2.17968 25.7767L2.53182 26.027C2.78318 26.2084 3.04061 26.3897 3.29197 26.5711C3.79469 26.9338 4.2968 27.2905 4.78677 27.6405C6.24394 28.6852 7.62034 29.6923 8.85831 30.6245C9.29181 30.937 9.70825 31.2501 10.1023 31.5499C11.6475 32.7076 12.9104 33.7148 13.8023 34.3966C14.5813 35.0012 15.0591 35.3972 15.1659 35.4848L8.548 30.9122L1.81297 26.2573C1.17396 25.8157 0.66973 25.207 0.355709 24.4984C0.0416902 23.7897 -0.069931 23.0086 0.0331257 22.2409C0.136183 21.4731 0.449915 20.7486 0.939824 20.147C1.42973 19.5454 2.07682 19.0899 2.8099 18.8308L16.3358 14.0375Z" fill="black"/>
</g>
<g style="mix-blend-mode:multiply" opacity="0.3">
<path d="M17.5609 13.7311C17.5797 13.7244 17.5857 13.7244 17.5984 13.7311C17.5861 13.7341 17.5736 13.7361 17.5609 13.7371V13.7311Z" fill="black"/>
</g>
</g>
<path d="M66.7216 27V9.54545H69.8835V16.9347H77.9716V9.54545H81.142V27H77.9716V19.5852H69.8835V27H66.7216ZM90.1548 27.2557C88.8764 27.2557 87.7685 26.9744 86.831 26.4119C85.8935 25.8494 85.1662 25.0625 84.6491 24.0511C84.1378 23.0398 83.8821 21.858 83.8821 20.5057C83.8821 19.1534 84.1378 17.9687 84.6491 16.9517C85.1662 15.9347 85.8935 15.1449 86.831 14.5824C87.7685 14.0199 88.8764 13.7386 90.1548 13.7386C91.4332 13.7386 92.5412 14.0199 93.4787 14.5824C94.4162 15.1449 95.1406 15.9347 95.652 16.9517C96.169 17.9687 96.4276 19.1534 96.4276 20.5057C96.4276 21.858 96.169 23.0398 95.652 24.0511C95.1406 25.0625 94.4162 25.8494 93.4787 26.4119C92.5412 26.9744 91.4332 27.2557 90.1548 27.2557ZM90.1719 24.7841C90.8651 24.7841 91.4446 24.5937 91.9105 24.2131C92.3764 23.8267 92.723 23.3097 92.9503 22.6619C93.1832 22.0142 93.2997 21.2926 93.2997 20.4972C93.2997 19.696 93.1832 18.9716 92.9503 18.3239C92.723 17.6705 92.3764 17.1506 91.9105 16.7642C91.4446 16.3778 90.8651 16.1847 90.1719 16.1847C89.4616 16.1847 88.8707 16.3778 88.3991 16.7642C87.9332 17.1506 87.5838 17.6705 87.3509 18.3239C87.1236 18.9716 87.0099 19.696 87.0099 20.4972C87.0099 21.2926 87.1236 22.0142 87.3509 22.6619C87.5838 23.3097 87.9332 23.8267 88.3991 24.2131C88.8707 24.5937 89.4616 24.7841 90.1719 24.7841ZM102.131 9.54545V27H99.0462V9.54545H102.131ZM110.162 27.2301C109.134 27.2301 108.213 26.9659 107.401 26.4375C106.588 25.9091 105.946 25.142 105.474 24.1364C105.003 23.1307 104.767 21.9091 104.767 20.4716C104.767 19.017 105.006 17.7898 105.483 16.7898C105.966 15.7841 106.616 15.0256 107.435 14.5142C108.253 13.9972 109.165 13.7386 110.17 13.7386C110.938 13.7386 111.568 13.8693 112.062 14.1307C112.557 14.3864 112.949 14.696 113.239 15.0597C113.528 15.4176 113.753 15.7557 113.912 16.0739H114.04V9.54545H117.134V27H114.099V24.9375H113.912C113.753 25.2557 113.523 25.5937 113.222 25.9517C112.92 26.304 112.523 26.6051 112.028 26.8551C111.534 27.1051 110.912 27.2301 110.162 27.2301ZM111.023 24.6989C111.676 24.6989 112.233 24.5227 112.693 24.1705C113.153 23.8125 113.503 23.3153 113.741 22.679C113.98 22.0426 114.099 21.3011 114.099 20.4545C114.099 19.608 113.98 18.8722 113.741 18.2472C113.509 17.6222 113.162 17.1364 112.702 16.7898C112.247 16.4432 111.688 16.2699 111.023 16.2699C110.335 16.2699 109.761 16.4489 109.301 16.8068C108.841 17.1648 108.494 17.6591 108.261 18.2898C108.028 18.9205 107.912 19.642 107.912 20.4545C107.912 21.2727 108.028 22.0028 108.261 22.6449C108.5 23.2812 108.849 23.7841 109.31 24.1534C109.776 24.517 110.347 24.6989 111.023 24.6989ZM120.421 27V13.9091H123.506V27H120.421ZM121.972 12.0511C121.484 12.0511 121.063 11.8892 120.711 11.5653C120.359 11.2358 120.183 10.8409 120.183 10.3807C120.183 9.91477 120.359 9.51989 120.711 9.19602C121.063 8.86648 121.484 8.7017 121.972 8.7017C122.467 8.7017 122.887 8.86648 123.234 9.19602C123.586 9.51989 123.762 9.91477 123.762 10.3807C123.762 10.8409 123.586 11.2358 123.234 11.5653C122.887 11.8892 122.467 12.0511 121.972 12.0511ZM129.764 19.3295V27H126.679V13.9091H129.628V16.1335H129.781C130.082 15.4006 130.563 14.8182 131.222 14.3864C131.886 13.9545 132.707 13.7386 133.685 13.7386C134.588 13.7386 135.375 13.9318 136.045 14.3182C136.722 14.7045 137.244 15.2642 137.614 15.9972C137.989 16.7301 138.173 17.6193 138.168 18.6648V27H135.082V19.142C135.082 18.267 134.855 17.5824 134.401 17.0881C133.952 16.5937 133.33 16.3466 132.534 16.3466C131.994 16.3466 131.514 16.4659 131.094 16.7045C130.679 16.9375 130.352 17.2756 130.114 17.7188C129.881 18.1619 129.764 18.6989 129.764 19.3295ZM146.997 32.1818C145.889 32.1818 144.938 32.0313 144.142 31.7301C143.347 31.4347 142.707 31.0369 142.224 30.5369C141.741 30.0369 141.406 29.483 141.219 28.875L143.997 28.2017C144.122 28.4574 144.304 28.7102 144.543 28.9602C144.781 29.2159 145.102 29.4261 145.506 29.5909C145.915 29.7614 146.429 29.8466 147.048 29.8466C147.923 29.8466 148.648 29.6335 149.222 29.2074C149.795 28.7869 150.082 28.0938 150.082 27.1278V24.6477H149.929C149.77 24.9659 149.537 25.2926 149.23 25.6278C148.929 25.9631 148.528 26.2443 148.028 26.4716C147.534 26.6989 146.912 26.8125 146.162 26.8125C145.156 26.8125 144.244 26.5767 143.426 26.1051C142.614 25.6278 141.966 24.9176 141.483 23.9744C141.006 23.0256 140.767 21.8381 140.767 20.4119C140.767 18.9744 141.006 17.7614 141.483 16.7727C141.966 15.7784 142.616 15.0256 143.435 14.5142C144.253 13.9972 145.165 13.7386 146.17 13.7386C146.938 13.7386 147.568 13.8693 148.062 14.1307C148.562 14.3864 148.96 14.696 149.256 15.0597C149.551 15.4176 149.776 15.7557 149.929 16.0739H150.099V13.9091H153.142V27.2131C153.142 28.3324 152.875 29.2585 152.341 29.9915C151.807 30.7244 151.077 31.2727 150.151 31.6364C149.224 32 148.173 32.1818 146.997 32.1818ZM147.023 24.392C147.676 24.392 148.233 24.233 148.693 23.9148C149.153 23.5966 149.503 23.1392 149.741 22.5426C149.98 21.946 150.099 21.2301 150.099 20.3949C150.099 19.571 149.98 18.8494 149.741 18.2301C149.509 17.6108 149.162 17.1307 148.702 16.7898C148.247 16.4432 147.688 16.2699 147.023 16.2699C146.335 16.2699 145.761 16.4489 145.301 16.8068C144.841 17.1648 144.494 17.6562 144.261 18.2812C144.028 18.9006 143.912 19.6051 143.912 20.3949C143.912 21.196 144.028 21.8977 144.261 22.5C144.5 23.0966 144.849 23.5625 145.31 23.8977C145.776 24.2273 146.347 24.392 147.023 24.392Z" fill="black"/>
<defs>
<linearGradient id="paint0_linear_1207_5719" x1="4.10791" y1="16.4498" x2="18.9071" y2="27.5821" gradientUnits="userSpaceOnUse">
<stop stop-color="#F58033"/>
<stop offset="1" stop-color="#A53826"/>
</linearGradient>
<linearGradient id="paint1_linear_1207_5719" x1="32.2665" y1="36.2153" x2="44.6249" y2="1.45363" gradientUnits="userSpaceOnUse">
<stop stop-color="#FC0048"/>
<stop offset="0.133" stop-color="#FB004D"/>
<stop offset="0.305" stop-color="#FB005D"/>
<stop offset="0.499" stop-color="#FA0178"/>
<stop offset="0.707" stop-color="#F9029D"/>
<stop offset="0.926" stop-color="#F803CC"/>
<stop offset="1" stop-color="#F804DE"/>
</linearGradient>
</defs>
</svg>
