<svg width="131" height="36" viewBox="0 0 131 36" fill="none" xmlns="http://www.w3.org/2000/svg">
<mask id="mask0_1207_5755" style="mask-type:luminance" maskUnits="userSpaceOnUse" x="0" y="0" width="39" height="36">
<path d="M39 0H0V36H39V0Z" fill="white"/>
</mask>
<g mask="url(#mask0_1207_5755)">
<path d="M14.4711 11.4643C14.6371 11.299 14.7687 11.1025 14.8585 10.886C14.9482 10.6695 14.9944 10.4374 14.9941 10.2029C14.994 9.96853 14.9475 9.73647 14.8573 9.52014C14.7672 9.3038 14.6352 9.10747 14.469 8.94245C14.3028 8.77744 14.1057 8.64701 13.8889 8.55868C13.6722 8.47035 13.4401 8.42586 13.2061 8.42776C12.9721 8.42969 12.7408 8.47797 12.5255 8.56983C12.3103 8.66171 12.1153 8.79536 11.9518 8.96307C10.4742 10.4584 9.47228 12.3589 9.07271 14.4245C8.67314 16.4901 8.89385 18.6281 9.70695 20.568C10.52 22.508 11.889 24.1629 13.6408 25.3236C15.3926 26.4844 17.4485 27.0988 19.5488 27.0891C21.649 27.0795 23.6994 26.4463 25.4405 25.2696C27.1816 24.0928 28.5354 22.4254 29.3306 20.478C30.126 18.5307 30.3272 16.3908 29.9086 14.329C29.4902 12.2671 28.4711 10.3758 26.9798 8.89415C26.8144 8.72991 26.6183 8.59992 26.4026 8.51163C26.187 8.42334 25.9562 8.37845 25.7231 8.37954C25.4902 8.38062 25.2598 8.42765 25.045 8.51796C24.8302 8.60825 24.6354 8.74005 24.4713 8.90582C24.3074 9.07157 24.1776 9.26807 24.0896 9.48407C24.0014 9.70007 23.9567 9.93135 23.9576 10.1647C23.9587 10.398 24.0057 10.6289 24.0958 10.8441C24.186 11.0592 24.3176 11.2545 24.483 11.4187C25.4774 12.406 26.1574 13.6666 26.4367 15.041C26.716 16.4153 26.5821 17.8418 26.0522 19.14C25.5223 20.4382 24.6201 21.5499 23.4594 22.3344C22.2989 23.1189 20.9322 23.5411 19.5322 23.5476C18.1321 23.554 16.7616 23.1443 15.5939 22.3705C14.4262 21.5966 13.5138 20.4933 12.972 19.2C12.4302 17.9068 12.2834 16.4816 12.5502 15.1047C12.8169 13.7278 13.4852 12.4611 14.4706 11.4647L14.4711 11.4643Z" fill="url(#paint0_linear_1207_5755)"/>
<path d="M26.9496 -9.84863e-06C25.7847 0.00210166 24.6316 0.235678 23.5573 0.687203C22.483 1.13873 21.5087 1.79923 20.691 2.63048C20.3596 2.96473 19.9095 3.15366 19.4393 3.15579C18.9691 3.15794 18.5172 2.97311 18.1828 2.64187C16.5109 0.986126 14.2516 0.0623191 11.9006 0.073104C9.54969 0.0838892 7.29897 1.02838 5.64223 2.6994C2.92936 5.44456 1.0898 8.93383 0.356104 12.7261C-0.377592 16.5185 0.027507 20.4436 1.5202 24.0052C3.01289 27.567 5.52617 30.6054 8.7423 32.7365C11.9584 34.8675 15.7331 35.9955 19.589 35.9778C23.4451 35.9602 27.2091 34.7976 30.4057 32.6373C33.6024 30.4769 36.0878 27.4155 37.5479 23.8405C39.008 20.2652 39.3774 16.3365 38.609 12.5511C37.8408 8.76563 35.9696 5.29334 33.2317 2.57313C32.4065 1.74944 31.4263 1.09789 30.3479 0.656208C29.2696 0.214527 28.1146 -0.0085132 26.9496 -9.84863e-06ZM30.7346 5.09716C32.9772 7.32324 34.5104 10.1655 35.1404 13.2645C35.7705 16.3636 35.4692 19.5801 34.2744 22.5076C33.0796 25.4351 31.0452 27.9417 28.4282 29.7109C25.8113 31.48 22.7294 32.432 19.5724 32.4464C16.4155 32.461 13.3251 31.5373 10.6922 29.7922C8.05919 28.0472 6.00188 25.5591 4.78041 22.6428C3.55895 19.7265 3.22818 16.5127 3.82992 13.4081C4.43166 10.3034 5.9389 7.44718 8.16101 5.20064C9.15516 4.19803 10.5057 3.63135 11.9163 3.62486C13.327 3.61838 14.6826 4.17265 15.6858 5.16608C16.6889 6.15959 18.0444 6.71391 19.455 6.70749C20.8655 6.70104 22.2158 6.13434 23.2097 5.13171C24.203 4.12763 25.5538 3.5599 26.9649 3.55342C28.376 3.54694 29.7318 4.10223 30.7342 5.09716" fill="url(#paint1_linear_1207_5755)"/>
<path d="M19.4999 19.6009C21.0915 19.6009 22.3815 18.3085 22.3815 16.7142C22.3815 15.1198 21.0915 13.8274 19.4999 13.8274C17.9084 13.8274 16.6183 15.1198 16.6183 16.7142C16.6183 18.3085 17.9084 19.6009 19.4999 19.6009Z" fill="url(#paint2_linear_1207_5755)"/>
</g>
<path d="M51.8835 9.54545V27H48.7216V9.54545H51.8835ZM50.3068 7.6875C49.8125 7.6875 49.3892 7.52557 49.0369 7.2017C48.6903 6.87216 48.517 6.47727 48.517 6.01704C48.517 5.55114 48.6932 5.15625 49.0455 4.83239C49.3977 4.50284 49.8182 4.33807 50.3068 4.33807C50.7955 4.33807 51.2131 4.50284 51.5597 4.83239C51.9119 5.15625 52.0881 5.55114 52.0881 6.01704C52.0881 6.47727 51.9119 6.87216 51.5597 7.2017C51.2131 7.52557 50.7955 7.6875 50.3068 7.6875ZM58.2564 9.54545V27H55.1712V9.54545H58.2564ZM67.2244 27.2557C65.9119 27.2557 64.7784 26.983 63.8239 26.4375C62.875 25.8864 62.1449 25.108 61.6335 24.1023C61.1222 23.0909 60.8665 21.9006 60.8665 20.5312C60.8665 19.1847 61.1222 18.0028 61.6335 16.9858C62.1506 15.9631 62.8722 15.1676 63.7983 14.5994C64.7244 14.0256 65.8125 13.7386 67.0625 13.7386C67.8693 13.7386 68.6307 13.8693 69.3466 14.1307C70.0682 14.3864 70.7045 14.7841 71.2557 15.3239C71.8125 15.8636 72.25 16.5511 72.5682 17.3864C72.8864 18.2159 73.0455 19.2045 73.0455 20.3523V21.2983H62.3153V19.2188H70.0881C70.0824 18.6278 69.9545 18.1023 69.7045 17.642C69.4545 17.1761 69.1051 16.8097 68.6562 16.5426C68.2131 16.2756 67.696 16.142 67.1051 16.142C66.4744 16.142 65.9205 16.2955 65.4432 16.6023C64.9659 16.9034 64.5938 17.3011 64.3267 17.7955C64.0653 18.2841 63.9318 18.821 63.9261 19.4062V21.2216C63.9261 21.983 64.0653 22.6364 64.3438 23.1818C64.6222 23.7216 65.0114 24.1364 65.5114 24.4261C66.0114 24.7102 66.5966 24.8523 67.267 24.8523C67.7159 24.8523 68.1222 24.7898 68.4858 24.6648C68.8494 24.5341 69.1648 24.3438 69.4318 24.0938C69.6989 23.8438 69.9006 23.5341 70.0369 23.1648L72.9176 23.4886C72.7358 24.25 72.3892 24.9148 71.8778 25.483C71.3722 26.0455 70.7244 26.483 69.9347 26.7955C69.1449 27.1023 68.2415 27.2557 67.2244 27.2557ZM82.1925 13.9091V16.2955H74.6669V13.9091H82.1925ZM76.5249 10.7727H79.6101V23.0625C79.6101 23.4773 79.6726 23.7955 79.7976 24.017C79.9283 24.233 80.0987 24.3807 80.3089 24.4602C80.5192 24.5398 80.7521 24.5795 81.0078 24.5795C81.201 24.5795 81.3771 24.5653 81.5362 24.5369C81.701 24.5085 81.826 24.483 81.9112 24.4602L82.4311 26.8722C82.2663 26.929 82.0305 26.9915 81.7237 27.0597C81.4226 27.1278 81.0533 27.1676 80.6158 27.179C79.843 27.2017 79.147 27.0852 78.5277 26.8295C77.9084 26.5682 77.4169 26.1648 77.0533 25.6193C76.6953 25.0739 76.5192 24.392 76.5249 23.5739V10.7727ZM84.7727 27V13.9091H87.858V27H84.7727ZM86.3239 12.0511C85.8352 12.0511 85.4148 11.8892 85.0625 11.5653C84.7102 11.2358 84.5341 10.8409 84.5341 10.3807C84.5341 9.91477 84.7102 9.51989 85.0625 9.19602C85.4148 8.86648 85.8352 8.7017 86.3239 8.7017C86.8182 8.7017 87.2386 8.86648 87.5852 9.19602C87.9375 9.51989 88.1136 9.91477 88.1136 10.3807C88.1136 10.8409 87.9375 11.2358 87.5852 11.5653C87.2386 11.8892 86.8182 12.0511 86.3239 12.0511ZM101.377 17.3693L98.5646 17.6761C98.4851 17.392 98.3459 17.125 98.147 16.875C97.9538 16.625 97.6925 16.4233 97.3629 16.2699C97.0334 16.1165 96.63 16.0398 96.1527 16.0398C95.5107 16.0398 94.9709 16.179 94.5334 16.4574C94.1016 16.7358 93.8885 17.0966 93.8942 17.5398C93.8885 17.9205 94.0277 18.2301 94.3118 18.4688C94.6016 18.7074 95.0788 18.9034 95.7436 19.0568L97.9766 19.5341C99.2152 19.8011 100.136 20.2244 100.738 20.804C101.346 21.3835 101.653 22.142 101.658 23.0795C101.653 23.9034 101.411 24.6307 100.934 25.2614C100.462 25.8864 99.8061 26.375 98.9652 26.7273C98.1243 27.0795 97.1584 27.2557 96.0675 27.2557C94.4652 27.2557 93.1754 26.9205 92.1982 26.25C91.2209 25.5739 90.6385 24.6335 90.451 23.429L93.4595 23.1392C93.5959 23.7301 93.8857 24.1761 94.3288 24.4773C94.772 24.7784 95.3487 24.929 96.0589 24.929C96.7919 24.929 97.38 24.7784 97.8232 24.4773C98.272 24.1761 98.4964 23.804 98.4964 23.3608C98.4964 22.9858 98.3516 22.6761 98.0618 22.4318C97.7777 22.1875 97.3345 22 96.7322 21.8693L94.4993 21.4006C93.2436 21.1392 92.3146 20.6989 91.7124 20.0795C91.1101 19.4545 90.8118 18.6648 90.8175 17.7102C90.8118 16.9034 91.0305 16.2045 91.4737 15.6136C91.9226 15.017 92.5447 14.5568 93.3402 14.233C94.1413 13.9034 95.0646 13.7386 96.1101 13.7386C97.6442 13.7386 98.8516 14.0653 99.7322 14.7188C100.619 15.3722 101.167 16.2557 101.377 17.3693ZM95.2919 26.9318H96.9624L96.826 27.6562C97.3601 27.7358 97.8118 27.9403 98.1811 28.2699C98.5561 28.6051 98.7436 29.0852 98.7436 29.7102C98.7493 30.517 98.3885 31.1648 97.6612 31.6534C96.9339 32.142 95.897 32.3864 94.5504 32.3864L94.5163 30.8693C95.1697 30.8693 95.6896 30.7813 96.076 30.6051C96.4624 30.4347 96.6584 30.1619 96.6641 29.7869C96.6754 29.4233 96.5391 29.1563 96.255 28.9858C95.9766 28.821 95.5334 28.7074 94.9254 28.6449L95.2919 26.9318ZM104.202 27V13.9091H107.288V27H104.202ZM105.754 12.0511C105.265 12.0511 104.844 11.8892 104.492 11.5653C104.14 11.2358 103.964 10.8409 103.964 10.3807C103.964 9.91477 104.14 9.51989 104.492 9.19602C104.844 8.86648 105.265 8.7017 105.754 8.7017C106.248 8.7017 106.668 8.86648 107.015 9.19602C107.367 9.51989 107.543 9.91477 107.543 10.3807C107.543 10.8409 107.367 11.2358 107.015 11.5653C106.668 11.8892 106.248 12.0511 105.754 12.0511ZM110.46 27V13.9091H113.409V16.1335H113.562C113.835 15.3835 114.287 14.7983 114.918 14.3778C115.548 13.9517 116.301 13.7386 117.176 13.7386C118.062 13.7386 118.81 13.9545 119.418 14.3864C120.031 14.8125 120.463 15.3949 120.713 16.1335H120.849C121.139 15.4062 121.628 14.8267 122.315 14.3949C123.009 13.9574 123.83 13.7386 124.778 13.7386C125.983 13.7386 126.966 14.1193 127.727 14.8807C128.489 15.642 128.869 16.7528 128.869 18.2131V27H125.776V18.6903C125.776 17.8778 125.56 17.2841 125.128 16.9091C124.696 16.5284 124.168 16.3381 123.543 16.3381C122.798 16.3381 122.216 16.571 121.795 17.0369C121.381 17.4972 121.173 18.0966 121.173 18.8352V27H118.148V18.5625C118.148 17.8864 117.943 17.3466 117.534 16.9432C117.131 16.5398 116.602 16.3381 115.949 16.3381C115.506 16.3381 115.102 16.4517 114.739 16.679C114.375 16.9006 114.085 17.2159 113.869 17.625C113.653 18.0284 113.545 18.5 113.545 19.0398V27H110.46Z" fill="black"/>
<defs>
<linearGradient id="paint0_linear_1207_5755" x1="19.5001" y1="37.866" x2="19.5001" y2="0.109846" gradientUnits="userSpaceOnUse">
<stop stop-color="#00CD9E"/>
<stop offset="1" stop-color="#38A3DC"/>
</linearGradient>
<linearGradient id="paint1_linear_1207_5755" x1="19.4999" y1="37.849" x2="19.4999" y2="0.10769" gradientUnits="userSpaceOnUse">
<stop stop-color="#00CD9E"/>
<stop offset="1" stop-color="#38A3DC"/>
</linearGradient>
<linearGradient id="paint2_linear_1207_5755" x1="19.4999" y1="37.8799" x2="19.4999" y2="0.109497" gradientUnits="userSpaceOnUse">
<stop stop-color="#00AB9E"/>
<stop offset="1" stop-color="#38A3DC"/>
</linearGradient>
</defs>
</svg>
