<svg width="460" height="286" viewBox="0 0 460 286" fill="none" xmlns="http://www.w3.org/2000/svg">
  <g clip-path="url(#clip0_434_9729)">
    <path opacity="0.1" d="M411.976 -33C312.142 -21.3333 96.2757 22.9 31.4757 106.5C-49.5243 211 18.9756 469 316.976 468.5" stroke="#E2E8F0" stroke-width="2" />
    <path opacity="0.1" d="M519.976 -43C420.142 -31.3333 204.276 12.9 139.476 96.5C58.4757 201 126.976 459 424.976 458.5" stroke="#E2E8F0" stroke-width="2" />
    <path opacity="0.1" d="M637.976 -3C538.142 8.66667 322.276 52.9 257.476 136.5C176.476 241 244.976 499 542.976 498.5" stroke="#E2E8F0" stroke-width="2" />
    <path opacity="0.1" d="M735.976 57C636.142 68.6667 420.276 112.9 355.476 196.5C274.476 301 342.976 559 640.976 558.5" stroke="#E2E8F0" stroke-width="2" />
  </g>
  <defs>
    <clipPath id="clip0_434_9729">
      <rect width="460" height="286" fill="white" />
    </clipPath>
  </defs>
</svg>